<mxfile host="Electron" modified="2023-04-18T08:41:30.379Z" agent="Mozilla/5.0 (Windows NT 10.0; Win64; x64) AppleWebKit/537.36 (KHTML, like Gecko) draw.io/21.1.2 Chrome/106.0.5249.199 Electron/21.4.3 Safari/537.36" etag="vN2h2pUBRbPuehHV4wOK" version="21.1.2" type="device">
  <diagram name="Side-1" id="iKqMxSohkQClyFcBmDz4">
    <mxGraphModel dx="1036" dy="614" grid="1" gridSize="10" guides="1" tooltips="1" connect="1" arrows="1" fold="1" page="1" pageScale="1" pageWidth="1169" pageHeight="827" math="0" shadow="0">
      <root>
        <mxCell id="0" />
        <mxCell id="1" parent="0" />
        <mxCell id="vLA8gITZYmQciI4Sbsdz-7" value="Startup" style="edgeStyle=orthogonalEdgeStyle;rounded=0;orthogonalLoop=1;jettySize=auto;html=1;exitX=1;exitY=0.5;exitDx=0;exitDy=0;" edge="1" parent="1" source="vLA8gITZYmQciI4Sbsdz-1" target="vLA8gITZYmQciI4Sbsdz-2">
          <mxGeometry x="-0.1111" y="10" relative="1" as="geometry">
            <mxPoint as="offset" />
          </mxGeometry>
        </mxCell>
        <mxCell id="vLA8gITZYmQciI4Sbsdz-1" value="" style="ellipse;whiteSpace=wrap;html=1;aspect=fixed;gradientColor=none;gradientDirection=radial;strokeWidth=6;" vertex="1" parent="1">
          <mxGeometry x="20" y="312.5" width="15" height="15" as="geometry" />
        </mxCell>
        <mxCell id="vLA8gITZYmQciI4Sbsdz-8" style="edgeStyle=orthogonalEdgeStyle;rounded=0;orthogonalLoop=1;jettySize=auto;html=1;exitX=1;exitY=0.5;exitDx=0;exitDy=0;entryX=0;entryY=0.5;entryDx=0;entryDy=0;" edge="1" parent="1" source="vLA8gITZYmQciI4Sbsdz-2" target="vLA8gITZYmQciI4Sbsdz-6">
          <mxGeometry relative="1" as="geometry" />
        </mxCell>
        <mxCell id="vLA8gITZYmQciI4Sbsdz-13" style="edgeStyle=orthogonalEdgeStyle;rounded=0;orthogonalLoop=1;jettySize=auto;html=1;exitX=0.5;exitY=0;exitDx=0;exitDy=0;curved=1;" edge="1" parent="1" source="vLA8gITZYmQciI4Sbsdz-2">
          <mxGeometry relative="1" as="geometry">
            <mxPoint x="570" y="290" as="targetPoint" />
            <Array as="points">
              <mxPoint x="200" y="230" />
              <mxPoint x="570" y="230" />
            </Array>
          </mxGeometry>
        </mxCell>
        <mxCell id="vLA8gITZYmQciI4Sbsdz-2" value="Initialization" style="rounded=0;whiteSpace=wrap;html=1;fontSize=14;fontStyle=1" vertex="1" parent="1">
          <mxGeometry x="140" y="290" width="120" height="60" as="geometry" />
        </mxCell>
        <mxCell id="vLA8gITZYmQciI4Sbsdz-12" value="set target" style="edgeStyle=orthogonalEdgeStyle;rounded=0;orthogonalLoop=1;jettySize=auto;html=1;exitX=0.25;exitY=0;exitDx=0;exitDy=0;entryX=0.25;entryY=1;entryDx=0;entryDy=0;fontSize=9;" edge="1" parent="1" source="vLA8gITZYmQciI4Sbsdz-3" target="vLA8gITZYmQciI4Sbsdz-6">
          <mxGeometry relative="1" as="geometry" />
        </mxCell>
        <mxCell id="vLA8gITZYmQciI4Sbsdz-15" style="edgeStyle=orthogonalEdgeStyle;rounded=0;orthogonalLoop=1;jettySize=auto;html=1;exitX=1;exitY=0.5;exitDx=0;exitDy=0;entryX=0;entryY=0.75;entryDx=0;entryDy=0;curved=1;" edge="1" parent="1" source="vLA8gITZYmQciI4Sbsdz-3" target="vLA8gITZYmQciI4Sbsdz-4">
          <mxGeometry relative="1" as="geometry" />
        </mxCell>
        <mxCell id="vLA8gITZYmQciI4Sbsdz-21" value="&lt;font style=&quot;font-size: 9px;&quot;&gt;user shuts &lt;br&gt;down&lt;/font&gt;" style="edgeStyle=orthogonalEdgeStyle;rounded=0;orthogonalLoop=1;jettySize=auto;html=1;" edge="1" parent="1" source="vLA8gITZYmQciI4Sbsdz-3" target="vLA8gITZYmQciI4Sbsdz-20">
          <mxGeometry x="-0.1429" y="-20" relative="1" as="geometry">
            <mxPoint as="offset" />
          </mxGeometry>
        </mxCell>
        <mxCell id="vLA8gITZYmQciI4Sbsdz-3" value="Stable mode" style="rounded=0;whiteSpace=wrap;html=1;fontSize=14;fontStyle=1" vertex="1" parent="1">
          <mxGeometry x="330" y="400" width="120" height="60" as="geometry" />
        </mxCell>
        <mxCell id="vLA8gITZYmQciI4Sbsdz-17" value="Stop" style="edgeStyle=orthogonalEdgeStyle;rounded=0;orthogonalLoop=1;jettySize=auto;html=1;exitX=1;exitY=0.5;exitDx=0;exitDy=0;entryX=0;entryY=0.5;entryDx=0;entryDy=0;" edge="1" parent="1" source="vLA8gITZYmQciI4Sbsdz-4" target="vLA8gITZYmQciI4Sbsdz-16">
          <mxGeometry y="10" relative="1" as="geometry">
            <mxPoint as="offset" />
          </mxGeometry>
        </mxCell>
        <mxCell id="vLA8gITZYmQciI4Sbsdz-4" value="Emergency stop" style="rounded=0;whiteSpace=wrap;html=1;fontSize=14;fontStyle=1" vertex="1" parent="1">
          <mxGeometry x="520" y="290" width="120" height="60" as="geometry" />
        </mxCell>
        <mxCell id="vLA8gITZYmQciI4Sbsdz-11" value="reach target" style="edgeStyle=orthogonalEdgeStyle;rounded=0;orthogonalLoop=1;jettySize=auto;html=1;exitX=0.75;exitY=1;exitDx=0;exitDy=0;entryX=0.75;entryY=0;entryDx=0;entryDy=0;fontSize=9;" edge="1" parent="1" source="vLA8gITZYmQciI4Sbsdz-6" target="vLA8gITZYmQciI4Sbsdz-3">
          <mxGeometry relative="1" as="geometry" />
        </mxCell>
        <mxCell id="vLA8gITZYmQciI4Sbsdz-14" style="edgeStyle=orthogonalEdgeStyle;rounded=0;orthogonalLoop=1;jettySize=auto;html=1;exitX=1;exitY=0.25;exitDx=0;exitDy=0;entryX=0;entryY=0.25;entryDx=0;entryDy=0;curved=1;" edge="1" parent="1" source="vLA8gITZYmQciI4Sbsdz-6" target="vLA8gITZYmQciI4Sbsdz-4">
          <mxGeometry relative="1" as="geometry" />
        </mxCell>
        <mxCell id="vLA8gITZYmQciI4Sbsdz-6" value="Operating mode" style="rounded=0;whiteSpace=wrap;html=1;fontSize=14;fontStyle=1" vertex="1" parent="1">
          <mxGeometry x="330" y="290" width="120" height="60" as="geometry" />
        </mxCell>
        <mxCell id="vLA8gITZYmQciI4Sbsdz-16" value="" style="ellipse;whiteSpace=wrap;html=1;aspect=fixed;fillColor=#000000;" vertex="1" parent="1">
          <mxGeometry x="740" y="305" width="30" height="30" as="geometry" />
        </mxCell>
        <mxCell id="vLA8gITZYmQciI4Sbsdz-23" style="edgeStyle=orthogonalEdgeStyle;rounded=0;orthogonalLoop=1;jettySize=auto;html=1;exitX=1;exitY=0.5;exitDx=0;exitDy=0;entryX=0.5;entryY=1;entryDx=0;entryDy=0;" edge="1" parent="1" source="vLA8gITZYmQciI4Sbsdz-20" target="vLA8gITZYmQciI4Sbsdz-16">
          <mxGeometry relative="1" as="geometry" />
        </mxCell>
        <mxCell id="vLA8gITZYmQciI4Sbsdz-20" value="Shutdown" style="rounded=0;whiteSpace=wrap;html=1;fontSize=14;fontStyle=1" vertex="1" parent="1">
          <mxGeometry x="520" y="400" width="120" height="60" as="geometry" />
        </mxCell>
      </root>
    </mxGraphModel>
  </diagram>
</mxfile>
